<svg xmlns="http://www.w3.org/2000/svg" viewBox="0 0 824 200">
  <path fill="#FFFFFF" d="M183.9 0C136.3 0 93.6 22.2 66.4 57.4l-16.3 19.7c-9 12.1-14.2 27-14.2 43.1v.3c0 39.7 32.2 71.9 71.9 71.9h30.5c27 0 51.5-16.1 62.2-40.9l6.2-16.3-30.5-11.5-6.2 16.3c-5.4 12.5-17.7 20.5-31.1 20.5h-30.5c-19.8 0-35.9-16.1-35.9-35.9v-.3c0-8 2.6-15.5 7.1-21.6l16.3-19.7C112.4 58.1 146 41.8 183.9 41.8 236.1 41.8 278 83.7 278 135.9 278 188.1 236.1 230 183.9 230h-44.7v41.8h44.7c75.1 0 135.9-60.9 135.9-135.9S259 0 183.9 0z"/>
  <path fill="#FFFFFF" d="M85.3 142.4c-2 0-3.7-1.7-3.7-3.7s1.7-3.7 3.7-3.7h99.4c2 0 3.7 1.7 3.7 3.7s-1.7 3.7-3.7 3.7H85.3z"/>
  <path fill="#FFFFFF" d="M184.7 142.4c-2 0-3.7-1.7-3.7-3.7V39.3c0-2 1.7-3.7 3.7-3.7s3.7 1.7 3.7 3.7v99.4c-.1 2-1.7 3.7-3.7 3.7z"/>
  <path fill="#FFFFFF" d="M371.6 87.8c-6.6-4.8-14.3-7.3-23.1-7.3-9.3 0-17.4 2.3-24.5 6.8s-12.5 10.7-16.3 18.6-5.8 16.8-5.8 26.8c0 10.2 1.9 19.2 5.8 27 3.8 7.8 9.3 13.9 16.3 18.3s15.2 6.6 24.5 6.6c8.8 0 16.5-2.4 23.1-7.3s11.4-11.5 14.4-19.9H406c-4 15.4-11.9 27.7-23.9 36.9-11.9 9.2-26.7 13.8-44.2 13.8-13.9 0-26.2-3.2-37-9.7s-19.1-15.4-25.1-26.9c-6-11.5-8.9-24.7-8.9-39.8 0-15 3-28.3 9-39.8 6-11.5 14.3-20.5 25.1-26.9s23.2-9.7 37-9.7c17.5 0 32.2 4.6 44.2 13.8 11.9 9.2 19.9 21.5 23.9 36.9h-20.1c-2.9-8.3-7.8-15-14.4-19.8zM431.8 178.6c-8.1-8-12.1-19.4-12.1-34V83.7h17.3v60.9c0 9.6 2.5 17 7.6 22.3s12.2 7.9 21.3 7.9c9.1 0 16.2-2.6 21.3-7.9s7.6-12.7 7.6-22.3V83.7h17.3v60.9c0 14.7-4 26-12.1 34s-19.2 12-33.4 12-25.4-4-33.5-12zM628.9 200.3h-16.1V133c0-9.3-2.3-16.4-6.8-21.1s-10.7-7.1-18.4-7.1c-8.3 0-14.9 2.6-19.9 7.9s-7.5 12.3-7.5 21.1v66.6h-16.1V133c0-9.3-2.3-16.4-6.8-21.1s-10.7-7.1-18.6-7.1c-8.3 0-14.9 2.6-19.9 7.9s-7.5 12.3-7.5 21.1v66.6h-16.1V83.7h16.1v13.1c3.1-4.6 7.3-8.1 12.7-10.7s11.4-3.9 18-3.9c8.5 0 15.9 1.8 22.3 5.5s11 8.8 13.9 15.3c3.3-6.4 8.2-11.6 14.7-15.4 6.5-3.9 13.9-5.8 22.1-5.8 5.2 0 10.1.8 14.6 2.4s8.4 3.9 11.8 6.9 6 6.7 7.9 11 2.9 9.2 2.9 14.6v83.6zM662 142c0-8.5 1.6-16.4 4.9-23.6s7.9-13.1 14.1-17.7c6.1-4.6 13.4-6.9 21.7-6.9 7.8 0 14.3 1.6 19.6 4.9 5.2 3.3 9.2 7.3 11.9 12v-15h16.1v104.7h-16.1v-15.3c-2.7 4.7-6.7 8.8-12 12.1s-12 5-20.1 5c-8.2 0-15.3-2.4-21.5-7.1s-10.9-11.1-14.1-19.1-4.9-16.7-4.9-26v-8zm16.1 8.3c0 10.1 2.4 18.3 7.3 24.5s11.4 9.4 19.6 9.4c5.6 0 10.5-1.3 14.7-3.9 4.2-2.6 7.4-6 9.7-10.2V113c-2.3-4.3-5.6-7.7-9.7-10.3-4.2-2.6-9.1-3.9-14.7-3.9-8.2 0-14.7 3.2-19.6 9.7s-7.3 15.3-7.3 26.5v15.3zM779.8 53.9c-2.2-2.3-3.3-5-3.3-8.3 0-3.3 1.1-6 3.3-8.3s5-3.3 8.3-3.3c3.3 0 6 1.1 8.3 3.3s3.3 5 3.3 8.3c0 3.3-1.1 6-3.3 8.3s-5 3.3-8.3 3.3c-3.3.1-6.1-1-8.3-3.3zm-1.1 29.8h16.1v116.7h-16.1V83.7z"/>
</svg> 